<svg xmlns="http://www.w3.org/2000/svg" xmlns:xlink="http://www.w3.org/1999/xlink" width="1046" height="639" version="1.1" viewBox="0 0 261 160"><g id="surface1"><path style="stroke:none;fill-rule:nonzero;fill:#3f3d56;fill-opacity:1" d="M 40.230469 138.878906 C 42.367188 146.804688 49.6875 151.714844 49.6875 151.714844 C 49.6875 151.714844 53.542969 143.773438 51.40625 135.84375 C 49.269531 127.917969 41.949219 123.007812 41.949219 123.007812 C 41.949219 123.007812 38.09375 130.949219 40.230469 138.878906 Z M 40.230469 138.878906"/><path style="stroke:none;fill-rule:nonzero;fill:#6c63ff;fill-opacity:1" d="M 43.371094 137.175781 C 49.234375 142.902344 49.953125 151.710938 49.953125 151.710938 C 49.953125 151.710938 41.160156 151.226562 35.296875 145.5 C 29.429688 139.769531 28.714844 130.964844 28.714844 130.964844 C 28.714844 130.964844 37.507812 131.445312 43.371094 137.175781 Z M 43.371094 137.175781"/><path style="stroke:none;fill-rule:nonzero;fill:#2f2e41;fill-opacity:1" d="M 28.3125 159.257812 L 234.820312 159.257812 L 234.820312 159.894531 L 28.3125 159.894531 Z M 28.3125 159.257812"/><path style="stroke:none;fill-rule:nonzero;fill:#3f3d56;fill-opacity:1" d="M 52.582031 159.574219 L 44.296875 159.574219 L 44.296875 151.261719 L 52.582031 151.261719 Z M 44.933594 158.9375 L 51.945312 158.9375 L 51.945312 151.902344 L 44.933594 151.902344 Z M 44.933594 158.9375"/><path style="stroke:none;fill-rule:nonzero;fill:#3f3d56;fill-opacity:1" d="M 0 6.339844 L 70.21875 6.339844 L 70.21875 76.804688 L 0 76.804688 Z M 0 6.339844"/><path style="stroke:none;fill-rule:nonzero;fill:#6c63ff;fill-opacity:1" d="M 70.21875 23.871094 L 70.21875 25.488281 C 69.148438 24.777344 68.285156 23.792969 67.714844 22.640625 C 66.78125 20.722656 66.8125 18.511719 66.839844 16.371094 C 66.875 13.828125 66.910156 11.429688 65.300781 9.867188 C 63.53125 8.152344 60.703125 8.394531 57.964844 8.628906 C 57.644531 8.652344 57.324219 8.683594 57.003906 8.710938 C 54.261719 8.917969 51.203125 8.222656 49.71875 6.339844 L 51.570312 6.339844 C 52.925781 7.257812 55.003906 7.578125 56.914062 7.433594 C 57.222656 7.414062 57.539062 7.382812 57.855469 7.359375 C 60.738281 7.113281 64.003906 6.832031 66.179688 8.949219 C 68.1875 10.894531 68.148438 13.6875 68.109375 16.386719 C 68.078125 18.378906 68.054688 20.433594 68.859375 22.082031 C 69.191406 22.761719 69.65625 23.371094 70.21875 23.871094 Z M 70.21875 23.871094"/><path style="stroke:none;fill-rule:nonzero;fill:#6c63ff;fill-opacity:1" d="M 70.21875 35.058594 L 70.21875 36.949219 C 69.914062 36.546875 69.566406 36.171875 69.1875 35.832031 C 67.003906 33.902344 63.871094 33.476562 60.84375 33.0625 C 60.449219 33.011719 60.0625 32.957031 59.679688 32.902344 C 54.769531 32.191406 51.722656 30.496094 50.371094 27.734375 C 49.4375 25.816406 49.46875 23.605469 49.496094 21.464844 C 49.53125 18.921875 49.566406 16.523438 47.957031 14.960938 C 46.1875 13.246094 43.359375 13.488281 40.621094 13.722656 C 40.300781 13.746094 39.980469 13.777344 39.660156 13.804688 C 36.132812 14.070312 32.085938 12.84375 31.53125 9.527344 C 31.339844 8.390625 31.625 7.347656 32.042969 6.339844 L 33.429688 6.339844 C 32.964844 7.351562 32.617188 8.328125 32.785156 9.316406 C 33.203125 11.847656 36.59375 12.753906 39.570312 12.53125 C 39.878906 12.507812 40.195312 12.476562 40.511719 12.453125 C 43.394531 12.207031 46.660156 11.925781 48.835938 14.042969 C 50.84375 15.988281 50.804688 18.78125 50.765625 21.480469 C 50.738281 23.472656 50.710938 25.527344 51.515625 27.175781 C 52.664062 29.535156 55.394531 30.996094 59.859375 31.640625 C 60.242188 31.695312 60.625 31.75 61.011719 31.800781 C 64.226562 32.238281 67.554688 32.691406 70.03125 34.878906 C 70.09375 34.933594 70.15625 34.992188 70.21875 35.058594 Z M 70.21875 35.058594"/><path style="stroke:none;fill-rule:nonzero;fill:#6c63ff;fill-opacity:1" d="M 70.21875 66.96875 L 70.21875 69.585938 C 68.691406 67.953125 67.414062 65.71875 66.4375 62.921875 C 66.230469 62.324219 66.03125 61.71875 65.832031 61.113281 C 64.738281 57.789062 63.605469 54.355469 60.90625 52.160156 C 58.019531 49.816406 53.886719 49.296875 49.890625 48.796875 C 49.378906 48.734375 48.867188 48.671875 48.359375 48.601562 C 41.878906 47.742188 37.863281 45.691406 36.082031 42.335938 C 34.847656 40.007812 34.886719 37.324219 34.925781 34.730469 C 34.96875 31.648438 35.015625 28.738281 32.894531 26.84375 C 30.5625 24.761719 26.828125 25.054688 23.21875 25.339844 C 22.792969 25.375 22.367188 25.410156 21.953125 25.4375 C 17.296875 25.761719 11.953125 24.273438 11.226562 20.253906 C 10.867188 18.285156 11.785156 16.539062 12.667969 14.851562 C 13.175781 13.882812 13.660156 12.960938 13.90625 12.015625 C 14.421875 10.066406 13.78125 7.871094 12.363281 6.339844 L 14.4375 6.339844 C 15.648438 8.105469 16.046875 10.304688 15.53125 12.378906 C 15.242188 13.488281 14.699219 14.523438 14.175781 15.527344 C 13.367188 17.0625 12.609375 18.515625 12.875 20 C 13.433594 23.066406 17.90625 24.167969 21.828125 23.898438 C 22.238281 23.867188 22.65625 23.832031 23.074219 23.804688 C 26.875 23.503906 31.179688 23.167969 34.058594 25.734375 C 36.699219 28.089844 36.648438 31.480469 36.597656 34.75 C 36.566406 37.167969 36.527344 39.660156 37.585938 41.65625 C 39.101562 44.515625 42.707031 46.289062 48.601562 47.074219 C 49.097656 47.140625 49.605469 47.207031 50.113281 47.269531 C 54.363281 47.800781 58.75 48.347656 62.007812 51 C 65.066406 53.488281 66.273438 57.132812 67.433594 60.660156 C 67.632812 61.265625 67.832031 61.859375 68.035156 62.449219 C 68.570312 64.042969 69.304688 65.5625 70.21875 66.96875 Z M 70.21875 66.96875"/><path style="stroke:none;fill-rule:nonzero;fill:#6c63ff;fill-opacity:1" d="M 0 34.792969 C 1.929688 37.136719 6.019531 38.003906 9.6875 37.75 C 10.101562 37.71875 10.523438 37.683594 10.953125 37.652344 C 14.558594 37.367188 18.296875 37.074219 20.625 39.152344 C 22.75 41.046875 22.703125 43.957031 22.65625 47.039062 C 22.617188 49.632812 22.582031 52.316406 23.816406 54.648438 C 25.597656 58 29.609375 60.050781 36.089844 60.914062 C 36.597656 60.980469 37.109375 61.042969 37.621094 61.109375 C 41.621094 61.609375 45.753906 62.125 48.636719 64.46875 C 51.335938 66.664062 52.472656 70.097656 53.566406 73.421875 C 53.765625 74.027344 53.964844 74.636719 54.171875 75.230469 C 54.363281 75.777344 54.566406 76.300781 54.777344 76.804688 L 56.585938 76.804688 C 56.269531 76.113281 56 75.421875 55.765625 74.757812 C 55.5625 74.167969 55.363281 73.574219 55.164062 72.972656 C 54.007812 69.445312 52.800781 65.796875 49.742188 63.3125 C 46.480469 60.65625 42.09375 60.109375 37.847656 59.578125 C 37.339844 59.515625 36.832031 59.453125 36.332031 59.382812 C 30.441406 58.597656 26.835938 56.824219 25.316406 53.96875 C 24.261719 51.96875 24.296875 49.476562 24.332031 47.0625 C 24.382812 43.789062 24.433594 40.402344 21.789062 38.046875 C 18.914062 35.476562 14.605469 35.8125 10.808594 36.113281 C 10.390625 36.144531 9.96875 36.175781 9.558594 36.207031 C 5.640625 36.480469 1.167969 35.375 0.609375 32.3125 C 0.34375 30.824219 1.101562 29.375 1.90625 27.835938 C 2.433594 26.835938 2.972656 25.800781 3.265625 24.691406 C 4.0625 21.660156 2.71875 18.300781 0 16.46875 L 0 18.546875 C 1.484375 20.085938 2.160156 22.332031 1.636719 24.324219 C 1.390625 25.273438 0.910156 26.195312 0.402344 27.160156 C 0.265625 27.421875 0.132812 27.675781 0 27.9375 Z M 0 34.792969"/><path style="stroke:none;fill-rule:nonzero;fill:#6c63ff;fill-opacity:1" d="M 31.0625 76.804688 L 29.304688 76.804688 C 29.214844 76.53125 29.125 76.25 29.03125 75.96875 C 27.9375 72.644531 26.800781 69.210938 24.101562 67.015625 C 21.21875 64.671875 17.085938 64.15625 13.089844 63.65625 C 12.578125 63.589844 12.0625 63.527344 11.558594 63.460938 C 5.835938 62.699219 2.035156 61.011719 0 58.320312 L 0 54.09375 C 0.128906 54.9375 0.394531 55.753906 0.78125 56.515625 C 2.300781 59.371094 5.90625 61.144531 11.796875 61.929688 C 12.296875 62 12.804688 62.0625 13.3125 62.125 C 17.558594 62.65625 21.945312 63.203125 25.207031 65.859375 C 28.265625 68.34375 29.472656 71.992188 30.628906 75.519531 C 30.773438 75.953125 30.914062 76.382812 31.0625 76.804688 Z M 31.0625 76.804688"/><path style="stroke:none;fill-rule:nonzero;fill:#3f3d56;fill-opacity:1" d="M 95.179688 6.339844 L 165.398438 6.339844 L 165.398438 76.804688 L 95.179688 76.804688 Z M 95.179688 6.339844"/><path style="stroke:none;fill-rule:nonzero;fill:#6c63ff;fill-opacity:1" d="M 129.019531 11.433594 C 129.019531 19.515625 124.699219 26.976562 117.703125 30.980469 C 110.707031 34.980469 102.109375 34.910156 95.179688 30.796875 L 95.179688 6.339844 L 128.441406 6.339844 C 128.828125 8.011719 129.023438 9.71875 129.019531 11.433594 Z M 129.019531 11.433594"/><path style="stroke:none;fill-rule:nonzero;fill:#6c63ff;fill-opacity:1" d="M 160.746094 25.441406 C 160.746094 32.945312 154.683594 39.027344 147.210938 39.027344 C 139.734375 39.027344 133.671875 32.945312 133.671875 25.441406 C 133.671875 17.941406 139.734375 11.859375 147.210938 11.859375 C 154.683594 11.859375 160.746094 17.941406 160.746094 25.441406 Z M 160.746094 25.441406"/><path style="stroke:none;fill-rule:nonzero;fill:#6c63ff;fill-opacity:1" d="M 126.480469 54.308594 C 126.480469 59.699219 122.125 64.070312 116.753906 64.070312 C 111.378906 64.070312 107.023438 59.699219 107.023438 54.308594 C 107.023438 48.914062 111.378906 44.542969 116.753906 44.542969 C 122.125 44.542969 126.480469 48.914062 126.480469 54.308594 Z M 126.480469 54.308594"/><path style="stroke:none;fill-rule:nonzero;fill:#6c63ff;fill-opacity:1" d="M 165.398438 65.257812 L 165.398438 76.804688 L 151.476562 76.804688 C 150.269531 73.003906 151.484375 68.851562 154.546875 66.308594 C 157.613281 63.765625 161.90625 63.351562 165.398438 65.257812 Z M 165.398438 65.257812"/><path style="stroke:none;fill-rule:nonzero;fill:#6c63ff;fill-opacity:1" d="M 143.824219 53.882812 C 143.824219 55.289062 142.6875 56.429688 141.285156 56.429688 C 139.886719 56.429688 138.75 55.289062 138.75 53.882812 C 138.75 52.476562 139.886719 51.335938 141.285156 51.335938 C 142.6875 51.335938 143.824219 52.476562 143.824219 53.882812 Z M 143.824219 53.882812"/><path style="stroke:none;fill-rule:nonzero;fill:#3f3d56;fill-opacity:1" d="M 190.78125 6.339844 L 261 6.339844 L 261 76.804688 L 190.78125 76.804688 Z M 190.78125 6.339844"/><path style="stroke:none;fill-rule:nonzero;fill:#6c63ff;fill-opacity:1" d="M 225.042969 6.339844 L 225.042969 35.207031 L 190.78125 35.207031 L 190.78125 36.902344 L 226.734375 36.902344 L 226.734375 6.339844 Z M 225.042969 6.339844"/><path style="stroke:none;fill-rule:nonzero;fill:#6c63ff;fill-opacity:1" d="M 258.09375 76.804688 L 261 72.65625 L 261 69.707031 L 256.023438 76.804688 Z M 246.292969 46.421875 L 230.71875 68.640625 L 242.289062 76.804688 L 245.230469 76.804688 L 233.078125 68.230469 L 246.703125 48.785156 L 261 58.875 L 261 56.800781 Z M 246.292969 46.421875"/><path style="stroke:none;fill-rule:nonzero;fill:#6c63ff;fill-opacity:1" d="M 220.390625 43.605469 L 211.417969 52.609375 L 220.390625 61.613281 L 229.363281 52.609375 Z M 213.808594 52.609375 L 220.390625 46.003906 L 226.972656 52.609375 L 220.390625 59.214844 Z M 213.808594 52.609375"/><path style="stroke:none;fill-rule:nonzero;fill:#f2f2f2;fill-opacity:1" d="M 40.792969 6.394531 C 40.792969 9.929688 37.9375 12.792969 34.417969 12.792969 C 30.898438 12.792969 28.042969 9.929688 28.042969 6.394531 C 28.042969 2.863281 30.898438 0 34.417969 0 C 37.9375 0 40.792969 2.863281 40.792969 6.394531 Z M 40.792969 6.394531"/><path style="stroke:none;fill-rule:nonzero;fill:#f2f2f2;fill-opacity:1" d="M 139.265625 6.394531 C 139.265625 9.929688 136.410156 12.792969 132.890625 12.792969 C 129.371094 12.792969 126.515625 9.929688 126.515625 6.394531 C 126.515625 2.863281 129.371094 0 132.890625 0 C 136.410156 0 139.265625 2.863281 139.265625 6.394531 Z M 139.265625 6.394531"/><path style="stroke:none;fill-rule:nonzero;fill:#f2f2f2;fill-opacity:1" d="M 233.273438 6.394531 C 233.273438 9.929688 230.421875 12.792969 226.902344 12.792969 C 223.382812 12.792969 220.527344 9.929688 220.527344 6.394531 C 220.527344 2.863281 223.382812 0 226.902344 0 C 230.421875 0 233.273438 2.863281 233.273438 6.394531 Z M 233.273438 6.394531"/><path style="stroke:none;fill-rule:nonzero;fill:#ffb8b8;fill-opacity:1" d="M 132.410156 37.574219 C 132.410156 40.929688 129.703125 43.652344 126.355469 43.652344 C 123.011719 43.652344 120.300781 40.929688 120.300781 37.574219 C 120.300781 34.21875 123.011719 31.5 126.355469 31.5 C 129.703125 31.5 132.410156 34.21875 132.410156 37.574219 Z M 132.410156 37.574219"/><path style="stroke:none;fill-rule:nonzero;fill:#ffb8b8;fill-opacity:1" d="M 123.171875 40.453125 C 123.171875 40.453125 124.765625 48.769531 124.125 50.367188 C 123.488281 51.964844 133.050781 49.726562 133.050781 49.726562 C 133.050781 49.726562 131.136719 41.414062 131.457031 39.496094 C 131.773438 37.574219 123.171875 40.453125 123.171875 40.453125 Z M 123.171875 40.453125"/><path style="stroke:none;fill-rule:nonzero;fill:#ffb8b8;fill-opacity:1" d="M 112.652344 69.234375 L 113.292969 77.871094 L 116.453125 91.429688 L 117.433594 95.136719 L 119.027344 89.382812 L 117.433594 76.269531 L 116.894531 70.367188 Z M 112.652344 69.234375"/><path style="stroke:none;fill-rule:nonzero;fill:#ffb8b8;fill-opacity:1" d="M 146.117188 67.957031 L 146.117188 76.910156 C 146.117188 76.910156 145.160156 88.421875 143.246094 91.300781 C 141.335938 94.179688 140.699219 79.789062 140.699219 79.789062 L 142.195312 69.234375 Z M 146.117188 67.957031"/><path style="stroke:none;fill-rule:nonzero;fill:#2f2e41;fill-opacity:1" d="M 117.753906 95.777344 C 117.753906 95.777344 116.160156 97.695312 117.433594 117.203125 C 118.707031 136.710938 116.796875 150.78125 120.941406 150.78125 C 120.941406 150.78125 119.664062 154.9375 123.171875 155.257812 C 126.675781 155.578125 128.269531 155.898438 128.589844 154.9375 C 128.90625 153.980469 129.542969 149.503906 128.589844 149.503906 C 128.589844 149.503906 128.589844 150.78125 129.226562 145.664062 C 129.863281 140.546875 129.863281 116.246094 131.457031 113.046875 L 136.554688 124.878906 C 136.554688 124.878906 136.554688 130.316406 137.511719 132.875 C 138.46875 135.433594 140.058594 150.140625 140.058594 150.140625 L 139.742188 152.378906 C 139.742188 152.378906 147.390625 153.660156 147.707031 152.378906 C 148.027344 151.101562 148.027344 149.183594 147.707031 148.542969 C 147.390625 147.902344 147.390625 147.902344 148.027344 146.625 C 148.664062 145.34375 148.664062 144.386719 148.347656 143.425781 C 148.027344 142.46875 148.027344 121.679688 148.027344 121.679688 C 148.027344 121.679688 147.390625 96.417969 143.566406 95.136719 C 139.742188 93.859375 117.753906 95.777344 117.753906 95.777344 Z M 117.753906 95.777344"/><path style="stroke:none;fill-rule:nonzero;fill:#2f2e41;fill-opacity:1" d="M 121.894531 152.699219 L 119.347656 157.175781 C 119.347656 157.175781 115.363281 155.738281 116.160156 159.417969 C 123.011719 159.894531 127.792969 159.257812 127.792969 159.257812 C 127.792969 159.257812 129.382812 159.894531 129.703125 158.9375 C 130.023438 157.976562 128.90625 154.621094 127.949219 154.621094 C 126.996094 154.621094 121.894531 152.699219 121.894531 152.699219 Z M 121.894531 152.699219"/><path style="stroke:none;fill-rule:nonzero;fill:#2f2e41;fill-opacity:1" d="M 140.378906 151.421875 C 140.378906 151.421875 137.828125 157.175781 138.785156 157.496094 C 139.742188 157.816406 148.347656 159.097656 148.984375 159.417969 C 149.621094 159.734375 152.808594 160.054688 153.125 158.136719 C 153.445312 156.21875 151.53125 155.578125 151.53125 155.578125 C 151.53125 155.578125 148.027344 154.9375 147.070312 151.742188 C 146.117188 148.542969 140.378906 151.421875 140.378906 151.421875 Z M 140.378906 151.421875"/><path style="stroke:none;fill-rule:nonzero;fill:#8985a8;fill-opacity:1" d="M 133.6875 48.769531 C 133.6875 48.769531 125.082031 47.167969 123.171875 48.769531 C 121.257812 50.367188 113.292969 53.566406 113.292969 55.164062 C 113.292969 56.761719 117.433594 72.433594 117.433594 72.433594 C 117.433594 72.433594 115.203125 96.097656 117.433594 96.738281 C 119.664062 97.375 123.488281 95.457031 127.949219 97.695312 C 132.410156 99.933594 145.160156 95.777344 145.160156 95.777344 C 145.160156 95.777344 140.378906 75.3125 141.652344 71.472656 C 142.929688 67.636719 143.882812 54.523438 143.882812 54.523438 C 143.882812 54.523438 138.46875 48.769531 133.6875 48.769531 Z M 133.6875 48.769531"/><path style="stroke:none;fill-rule:nonzero;fill:#8985a8;fill-opacity:1" d="M 115.523438 54.203125 L 113.292969 54.84375 C 113.292969 54.84375 108.511719 69.875 110.421875 70.515625 C 112.335938 71.152344 117.753906 72.433594 118.390625 72.433594 C 119.027344 72.433594 115.523438 54.203125 115.523438 54.203125 Z M 115.523438 54.203125"/><path style="stroke:none;fill-rule:nonzero;fill:#8985a8;fill-opacity:1" d="M 138.785156 52.605469 L 143.882812 54.523438 C 143.882812 54.523438 150.578125 66.996094 148.984375 68.59375 C 147.390625 70.195312 140.378906 71.792969 140.378906 71.792969 Z M 138.785156 52.605469"/><path style="stroke:none;fill-rule:nonzero;fill:#2f2e41;fill-opacity:1" d="M 126.171875 30.070312 C 125.667969 29.980469 125.152344 30.003906 124.660156 30.136719 C 124.261719 30.3125 123.898438 30.550781 123.582031 30.847656 C 123.003906 31.308594 122.390625 31.71875 121.742188 32.070312 C 121.226562 32.351562 120.671875 32.613281 120.308594 33.078125 C 120.140625 33.3125 120.003906 33.570312 119.90625 33.84375 C 119.285156 35.4375 119.117188 37.171875 119.421875 38.851562 C 119.457031 39.089844 119.53125 39.324219 119.636719 39.539062 C 119.96875 40.152344 120.699219 40.394531 121.316406 40.714844 C 122.484375 41.324219 123.371094 42.351562 124.332031 43.257812 C 124.6875 43.613281 125.089844 43.921875 125.523438 44.179688 C 126.890625 44.925781 128.566406 44.683594 130.101562 44.417969 C 130.324219 44.417969 130.53125 44.328125 130.6875 44.171875 C 130.84375 44.015625 130.929688 43.804688 130.925781 43.582031 L 132.140625 38.105469 C 132.359375 37.296875 132.464844 36.457031 132.449219 35.617188 C 132.367188 34.289062 131.648438 32.445312 130.675781 31.503906 C 129.542969 30.402344 127.652344 30.226562 126.171875 30.070312 Z M 126.171875 30.070312"/><path style="stroke:none;fill-rule:nonzero;fill:#6c63ff;fill-opacity:1" d="M 87.679688 152.230469 C 87.679688 153.625 86.554688 154.753906 85.164062 154.753906 C 83.777344 154.753906 82.648438 153.625 82.648438 152.230469 C 82.648438 150.835938 83.777344 149.707031 85.164062 149.707031 C 86.554688 149.707031 87.679688 150.835938 87.679688 152.230469 Z M 87.679688 152.230469"/><path style="stroke:none;fill-rule:nonzero;fill:#2f2e41;fill-opacity:1" d="M 85.164062 159.519531 C 81.152344 159.519531 77.898438 156.257812 77.898438 152.230469 C 77.898438 148.203125 81.152344 144.941406 85.164062 144.941406 C 89.175781 144.941406 92.429688 148.203125 92.429688 152.230469 C 92.425781 156.253906 89.175781 159.515625 85.164062 159.519531 Z M 85.164062 145.5 C 81.460938 145.5 78.457031 148.511719 78.457031 152.230469 C 78.457031 155.945312 81.460938 158.960938 85.164062 158.960938 C 88.867188 158.960938 91.871094 155.945312 91.871094 152.230469 C 91.867188 148.515625 88.867188 145.503906 85.164062 145.5 Z M 85.164062 145.5"/><path style="stroke:none;fill-rule:nonzero;fill:#6c63ff;fill-opacity:1" d="M 210.054688 152.550781 C 210.054688 153.945312 208.925781 155.074219 207.539062 155.074219 C 206.148438 155.074219 205.023438 153.945312 205.023438 152.550781 C 205.023438 151.15625 206.148438 150.027344 207.539062 150.027344 C 208.925781 150.027344 210.054688 151.15625 210.054688 152.550781 Z M 210.054688 152.550781"/><path style="stroke:none;fill-rule:nonzero;fill:#2f2e41;fill-opacity:1" d="M 207.539062 159.839844 C 203.527344 159.839844 200.273438 156.578125 200.273438 152.550781 C 200.273438 148.523438 203.527344 145.257812 207.539062 145.257812 C 211.550781 145.257812 214.804688 148.523438 214.804688 152.550781 C 214.796875 156.574219 211.546875 159.835938 207.539062 159.839844 Z M 207.539062 145.820312 C 203.835938 145.820312 200.832031 148.832031 200.832031 152.550781 C 200.832031 156.265625 203.835938 159.28125 207.539062 159.28125 C 211.242188 159.28125 214.246094 156.265625 214.246094 152.550781 C 214.238281 148.835938 211.238281 145.824219 207.539062 145.820312 Z M 207.539062 145.820312"/><path style="stroke:none;fill-rule:nonzero;fill:#6c63ff;fill-opacity:1" d="M 210.054688 138.480469 C 210.054688 139.871094 208.925781 141.003906 207.539062 141.003906 C 206.148438 141.003906 205.023438 139.871094 205.023438 138.480469 C 205.023438 137.085938 206.148438 135.957031 207.539062 135.957031 C 208.925781 135.957031 210.054688 137.085938 210.054688 138.480469 Z M 210.054688 138.480469"/><path style="stroke:none;fill-rule:nonzero;fill:#2f2e41;fill-opacity:1" d="M 207.539062 145.769531 C 203.527344 145.769531 200.273438 142.503906 200.273438 138.480469 C 200.273438 134.453125 203.527344 131.1875 207.539062 131.1875 C 211.550781 131.1875 214.804688 134.453125 214.804688 138.480469 C 214.796875 142.503906 211.546875 145.765625 207.539062 145.769531 Z M 207.539062 131.75 C 203.835938 131.75 200.832031 134.761719 200.832031 138.480469 C 200.832031 142.195312 203.835938 145.207031 207.539062 145.207031 C 211.242188 145.207031 214.246094 142.195312 214.246094 138.480469 C 214.238281 134.765625 211.238281 131.753906 207.539062 131.75 Z M 207.539062 131.75"/></g></svg>